<svg width="29" height="28" viewBox="0 0 29 28" fill="none" xmlns="http://www.w3.org/2000/svg">
<path d="M24.1023 12.9249C24.0692 12.7846 24.0019 12.6547 23.9065 12.5467C23.8111 12.4387 23.6905 12.356 23.5554 12.3058L17.2543 9.9422L18.8578 1.92173C18.8941 1.73538 18.8688 1.54227 18.7857 1.37155C18.7027 1.20083 18.5663 1.06177 18.3973 0.975332C18.2282 0.888898 18.0357 0.859789 17.8486 0.892399C17.6616 0.925008 17.4903 1.01757 17.3604 1.15611L5.11044 14.2811C5.01094 14.3859 4.93897 14.5138 4.90094 14.6532C4.86292 14.7927 4.86003 14.9394 4.89252 15.0802C4.92502 15.221 4.9919 15.3516 5.08719 15.4603C5.18247 15.569 5.30319 15.6523 5.43856 15.703L11.7418 18.0666L10.1428 26.0783C10.1065 26.2646 10.1318 26.4578 10.2148 26.6285C10.2979 26.7992 10.4342 26.9383 10.6033 27.0247C10.7723 27.1111 10.9649 27.1402 11.1519 27.1076C11.339 27.075 11.5103 26.9825 11.6401 26.8439L23.8901 13.7189C23.9878 13.6141 24.0583 13.4868 24.0953 13.3484C24.1323 13.2099 24.1347 13.0645 24.1023 12.9249ZM12.4626 23.4063L13.6078 17.6772C13.6488 17.474 13.6163 17.2629 13.5161 17.0814C13.416 16.8999 13.2547 16.7599 13.0609 16.6863L7.28153 14.5152L16.5368 4.59923L15.3928 10.3283C15.3518 10.5315 15.3843 10.7426 15.4844 10.9241C15.5846 11.1056 15.7459 11.2456 15.9397 11.3192L21.7147 13.4849L12.4626 23.4063Z" fill="#78797E"/>
</svg>
