<svg width="29" height="28" viewBox="0 0 29 28" fill="none" xmlns="http://www.w3.org/2000/svg">
<path d="M11.8497 20.3373C11.8071 20.5068 10.7406 24.5001 4.87487 24.5001C4.6428 24.5001 4.42024 24.4079 4.25615 24.2438C4.09205 24.0797 3.99987 23.8572 3.99987 23.6251C3.99987 17.7593 7.99315 16.6929 8.16268 16.6502C8.38793 16.594 8.6263 16.6295 8.82537 16.749C9.02444 16.8684 9.16789 17.0621 9.22416 17.2874C9.28044 17.5126 9.24493 17.751 9.12545 17.95C9.00597 18.1491 8.8123 18.2926 8.58705 18.3488C8.48862 18.3762 6.13487 19.0642 5.79143 22.7085C9.4358 22.3651 10.1249 20.0157 10.1533 19.9063C10.2113 19.6814 10.3563 19.4887 10.5564 19.3706C10.7565 19.2526 10.9953 19.2189 11.2203 19.2769C11.4452 19.3349 11.6379 19.4799 11.756 19.68C11.874 19.8801 11.9077 20.1189 11.8497 20.3438V20.3373ZM22.0216 12.9654L21.4999 13.4871V19.867C21.5012 20.0977 21.4566 20.3263 21.3687 20.5396C21.2808 20.7529 21.1514 20.9466 20.988 21.1095L17.2342 24.861C17.0724 25.0241 16.8798 25.1534 16.6677 25.2417C16.4556 25.3299 16.228 25.3752 15.9983 25.3751C15.8087 25.375 15.6203 25.3444 15.4405 25.2843C15.1317 25.1822 14.8577 24.9957 14.6493 24.746C14.4409 24.4963 14.3066 24.1933 14.2614 23.8712L13.6741 19.6613L8.83862 14.8259L4.63096 14.2385C4.30846 14.1933 4.00498 14.059 3.75465 13.8507C3.50433 13.6424 3.3171 13.3684 3.21401 13.0594C3.11093 12.7505 3.09608 12.419 3.17115 12.1021C3.24622 11.7852 3.40822 11.4956 3.63893 11.2657L7.39049 7.51197C7.55333 7.34854 7.74703 7.21913 7.96034 7.13125C8.17365 7.04338 8.4023 6.99879 8.63299 7.00009H15.0128L15.5346 6.47837C18.4527 3.56134 21.9691 3.43556 23.345 3.51759C23.7717 3.54352 24.1741 3.72469 24.4763 4.02693C24.7785 4.32917 24.9597 4.73157 24.9856 5.15822C25.0655 6.53087 24.9397 10.0473 22.0227 12.9654H22.0216ZM4.87487 12.506L8.93815 13.0726L13.2628 8.75009H8.63299L4.87487 12.506ZM10.488 14.0001L14.4999 18.012L20.7835 11.7284C21.6303 10.8873 22.2872 9.87466 22.7102 8.75858C23.1332 7.64251 23.3123 6.44882 23.2356 5.25775C22.0452 5.18393 20.8527 5.36497 19.7378 5.78878C18.6229 6.2126 17.6113 6.86943 16.7705 7.7154L10.488 14.0001ZM19.7499 15.2371L15.4263 19.5607L15.995 23.6251L19.7499 19.867V15.2371Z" fill="#78797E"/>
</svg>
