<svg width="29" height="28" viewBox="0 0 29 28" fill="none" xmlns="http://www.w3.org/2000/svg">
<path d="M27.2753 16.45C27.1834 16.519 27.0788 16.5691 26.9675 16.5977C26.8562 16.6262 26.7403 16.6325 26.6266 16.6162C26.5128 16.6 26.4034 16.5615 26.3045 16.5029C26.2057 16.4444 26.1193 16.367 26.0503 16.275C25.5229 15.5661 24.8365 14.991 24.0462 14.5958C23.2559 14.2007 22.3839 13.9966 21.5003 14C21.3283 14 21.16 13.9493 21.0167 13.8541C20.8733 13.759 20.7611 13.6237 20.6942 13.4652C20.6488 13.3575 20.6254 13.2419 20.6254 13.125C20.6254 13.0082 20.6488 12.8925 20.6942 12.7849C20.7611 12.6263 20.8733 12.4911 21.0167 12.3959C21.16 12.3008 21.3283 12.25 21.5003 12.25C21.9913 12.25 22.4724 12.1123 22.889 11.8525C23.3056 11.5927 23.641 11.2213 23.8571 10.7805C24.0732 10.3397 24.1614 9.84708 24.1116 9.35866C24.0617 8.87024 23.8759 8.40558 23.5753 8.01746C23.2746 7.62934 22.8711 7.33332 22.4107 7.16302C21.9502 6.99272 21.4512 6.95496 20.9703 7.05405C20.4895 7.15313 20.0461 7.38507 19.6904 7.72354C19.3348 8.062 19.0812 8.49342 18.9585 8.96878C18.9297 9.0801 18.8794 9.18467 18.8102 9.27651C18.7411 9.36836 18.6545 9.4457 18.5555 9.5041C18.4565 9.5625 18.3469 9.60082 18.2331 9.61688C18.1193 9.63294 18.0034 9.62642 17.892 9.59769C17.7807 9.56896 17.6762 9.51859 17.5843 9.44945C17.4925 9.38031 17.4151 9.29376 17.3567 9.19474C17.2983 9.09571 17.26 8.98615 17.244 8.87232C17.2279 8.75848 17.2344 8.6426 17.2631 8.53128C17.4335 7.87209 17.7554 7.26176 18.2031 6.74885C18.6508 6.23594 19.2121 5.83461 19.8423 5.57679C20.4724 5.31897 21.154 5.21178 21.8329 5.26374C22.5117 5.3157 23.1691 5.52539 23.7527 5.87611C24.3362 6.22683 24.8299 6.70891 25.1943 7.28399C25.5588 7.85907 25.784 8.51127 25.8521 9.18871C25.9201 9.86615 25.8291 10.5501 25.5863 11.1862C25.3435 11.8223 24.9556 12.3929 24.4535 12.8527C25.6432 13.3678 26.6775 14.1853 27.4536 15.2239C27.5226 15.3161 27.5726 15.421 27.601 15.5325C27.6293 15.644 27.6354 15.7601 27.6189 15.874C27.6023 15.9879 27.5634 16.0974 27.5045 16.1962C27.4455 16.2951 27.3677 16.3813 27.2753 16.45ZM21.3822 23.1875C21.4455 23.2871 21.488 23.3985 21.5072 23.5149C21.5263 23.6314 21.5217 23.7505 21.4937 23.8651C21.4656 23.9797 21.4146 24.0875 21.3438 24.1819C21.273 24.2763 21.1838 24.3554 21.0817 24.4145C20.9795 24.4736 20.8664 24.5113 20.7493 24.5256C20.6321 24.5398 20.5133 24.5302 20.4 24.4973C20.2867 24.4644 20.1811 24.409 20.0898 24.3342C19.9984 24.2595 19.9232 24.1671 19.8685 24.0625C19.3173 23.1292 18.5322 22.3557 17.5909 21.8184C16.6495 21.281 15.5843 20.9984 14.5003 20.9984C13.4164 20.9984 12.3512 21.281 11.4098 21.8184C10.4684 22.3557 9.68341 23.1292 9.13221 24.0625C9.07751 24.1671 9.00222 24.2595 8.91087 24.3342C8.81953 24.409 8.71401 24.4644 8.60068 24.4973C8.48734 24.5302 8.36852 24.5398 8.25137 24.5256C8.13422 24.5113 8.02116 24.4736 7.91899 24.4145C7.81682 24.3554 7.72766 24.2763 7.65686 24.1819C7.58605 24.0875 7.53508 23.9797 7.50701 23.8651C7.47893 23.7505 7.47433 23.6314 7.49348 23.5149C7.51264 23.3985 7.55515 23.2871 7.61846 23.1875C8.46677 21.73 9.76023 20.583 11.3088 19.915C10.4374 19.2479 9.79702 18.3245 9.47761 17.2745C9.15821 16.2246 9.17585 15.101 9.52805 14.0616C9.88026 13.0222 10.5493 12.1194 11.4412 11.4799C12.3331 10.8404 13.4029 10.4965 14.5003 10.4965C15.5978 10.4965 16.6676 10.8404 17.5595 11.4799C18.4513 12.1194 19.1204 13.0222 19.4726 14.0616C19.8248 15.101 19.8425 16.2246 19.5231 17.2745C19.2036 18.3245 18.5633 19.2479 17.6919 19.915C19.2404 20.583 20.5339 21.73 21.3822 23.1875ZM14.5003 19.25C15.1926 19.25 15.8693 19.0448 16.4448 18.6602C17.0204 18.2756 17.469 17.729 17.7339 17.0894C17.9988 16.4499 18.0681 15.7462 17.9331 15.0672C17.798 14.3883 17.4647 13.7646 16.9752 13.2752C16.4857 12.7857 15.8621 12.4523 15.1831 12.3173C14.5042 12.1822 13.8005 12.2515 13.1609 12.5165C12.5214 12.7814 11.9748 13.23 11.5902 13.8055C11.2056 14.3811 11.0003 15.0578 11.0003 15.75C11.0003 16.6783 11.3691 17.5685 12.0255 18.2249C12.6818 18.8813 13.5721 19.25 14.5003 19.25ZM8.37533 13.125C8.37533 12.893 8.28314 12.6704 8.11905 12.5063C7.95496 12.3422 7.7324 12.25 7.50033 12.25C7.00938 12.25 6.52828 12.1123 6.11167 11.8525C5.69507 11.5927 5.35966 11.2213 5.14355 10.7805C4.92744 10.3397 4.83929 9.84708 4.88911 9.35866C4.93893 8.87024 5.12472 8.40558 5.42539 8.01746C5.72605 7.62934 6.12953 7.33332 6.59 7.16302C7.05047 6.99272 7.54947 6.95496 8.03033 7.05405C8.51118 7.15313 8.95461 7.38507 9.31024 7.72354C9.66588 8.062 9.91947 8.49342 10.0422 8.96878C10.1002 9.19359 10.2452 9.38615 10.4452 9.5041C10.6451 9.62204 10.8838 9.6557 11.1086 9.59769C11.3334 9.53967 11.526 9.39473 11.6439 9.19474C11.7619 8.99475 11.7955 8.75609 11.7375 8.53128C11.5672 7.87209 11.2453 7.26176 10.7976 6.74885C10.3498 6.23594 9.78855 5.83461 9.15841 5.57679C8.52826 5.31897 7.84665 5.21178 7.16779 5.26374C6.48893 5.3157 5.83156 5.52539 5.248 5.87611C4.66444 6.22683 4.17079 6.70891 3.80632 7.28399C3.44186 7.85907 3.21664 8.51127 3.14859 9.18871C3.08055 9.86615 3.17154 10.5501 3.41435 11.1862C3.65715 11.8223 4.04506 12.3929 4.54721 12.8527C3.35861 13.3683 2.32549 14.1858 1.55033 15.2239C1.41095 15.4096 1.35102 15.643 1.38374 15.8728C1.41646 16.1027 1.53913 16.3101 1.72478 16.4495C1.91044 16.5889 2.14385 16.6488 2.37369 16.6161C2.60352 16.5834 2.81095 16.4607 2.95033 16.275C3.47772 15.5661 4.16419 14.991 4.95447 14.5958C5.74476 14.2007 6.61678 13.9966 7.50033 14C7.7324 14 7.95496 13.9078 8.11905 13.7438C8.28314 13.5797 8.37533 13.3571 8.37533 13.125Z" fill="#78797E"/>
</svg>
