<svg width="23" height="24" viewBox="0 0 23 24" fill="none" xmlns="http://www.w3.org/2000/svg">
<path d="M11.5 0.625C9.25024 0.625 7.051 1.29213 5.18039 2.54203C3.30978 3.79193 1.85182 5.56847 0.990875 7.64698C0.129929 9.72548 -0.0953343 12.0126 0.343573 14.2192C0.782479 16.4257 1.86584 18.4525 3.45667 20.0433C5.04749 21.6342 7.07432 22.7175 9.28085 23.1564C11.4874 23.5953 13.7745 23.3701 15.853 22.5091C17.9315 21.6482 19.7081 20.1902 20.958 18.3196C22.2079 16.449 22.875 14.2498 22.875 12C22.8718 8.98414 21.6724 6.09271 19.5398 3.96018C17.4073 1.82764 14.5159 0.628185 11.5 0.625ZM5.60251 19.6016C6.2355 18.6116 7.10751 17.7969 8.13817 17.2326C9.16883 16.6682 10.325 16.3724 11.5 16.3724C12.675 16.3724 13.8312 16.6682 14.8618 17.2326C15.8925 17.7969 16.7645 18.6116 17.3975 19.6016C15.7113 20.913 13.6361 21.6249 11.5 21.6249C9.36389 21.6249 7.2887 20.913 5.60251 19.6016ZM8 11.125C8 10.4328 8.20528 9.75608 8.58986 9.1805C8.97445 8.60493 9.52107 8.15633 10.1606 7.89142C10.8002 7.62651 11.5039 7.5572 12.1828 7.69225C12.8618 7.8273 13.4854 8.16064 13.9749 8.65013C14.4644 9.13961 14.7977 9.76325 14.9328 10.4422C15.0678 11.1211 14.9985 11.8249 14.7336 12.4644C14.4687 13.1039 14.0201 13.6506 13.4445 14.0351C12.8689 14.4197 12.1922 14.625 11.5 14.625C10.5717 14.625 9.68151 14.2563 9.02513 13.5999C8.36875 12.9435 8.00001 12.0533 8 11.125ZM18.6925 18.3886C17.7166 16.9745 16.3444 15.8804 14.7484 15.2441C15.6057 14.5688 16.2313 13.6432 16.5382 12.596C16.845 11.5487 16.8179 10.4319 16.4606 9.40075C16.1033 8.36962 15.4336 7.47547 14.5445 6.84263C13.6554 6.20979 12.5913 5.86973 11.5 5.86973C10.4087 5.86973 9.34456 6.20979 8.45551 6.84263C7.56646 7.47547 6.89671 8.36962 6.5394 9.40075C6.18209 10.4319 6.15497 11.5487 6.46183 12.596C6.76869 13.6432 7.39427 14.5688 8.25157 15.2441C6.65559 15.8804 5.28338 16.9745 4.30751 18.3886C3.07438 17.0019 2.2684 15.2883 1.98662 13.4541C1.70484 11.62 1.95927 9.74348 2.71929 8.05058C3.4793 6.35768 4.71249 4.92057 6.27035 3.91231C7.82822 2.90404 9.64433 2.36761 11.5 2.36761C13.3557 2.36761 15.1718 2.90404 16.7297 3.91231C18.2875 4.92057 19.5207 6.35768 20.2807 8.05058C21.0407 9.74348 21.2952 11.62 21.0134 13.4541C20.7316 15.2883 19.9256 17.0019 18.6925 18.3886Z" fill="#78797E"/>
</svg>
